<svg width="32" height="32" viewBox="0 0 32 32" fill="none" xmlns="http://www.w3.org/2000/svg">
<path d="M15.9968 11.7757C13.6709 11.7757 11.7728 13.6738 11.7728 15.9997C11.7728 18.3256 13.6709 20.2237 15.9968 20.2237C18.3226 20.2237 20.2207 18.3256 20.2207 15.9997C20.2207 13.6738 18.3226 11.7757 15.9968 11.7757ZM28.6654 15.9997C28.6654 14.2505 28.6813 12.5172 28.583 10.7711C28.4848 8.7431 28.0222 6.94322 26.5392 5.46022C25.053 3.97405 23.2564 3.51457 21.2284 3.41634C19.4792 3.31811 17.7459 3.33395 15.9999 3.33395C14.2508 3.33395 12.5175 3.31811 10.7715 3.41634C8.74349 3.51457 6.94364 3.97722 5.46067 5.46022C3.97453 6.94639 3.51506 8.7431 3.41683 10.7711C3.31859 12.5203 3.33444 14.2537 3.33444 15.9997C3.33444 17.7457 3.31859 19.4822 3.41683 21.2282C3.51506 23.2562 3.97769 25.0561 5.46067 26.5391C6.94681 28.0253 8.74349 28.4848 10.7715 28.583C12.5206 28.6812 14.2539 28.6654 15.9999 28.6654C17.7491 28.6654 19.4824 28.6812 21.2284 28.583C23.2564 28.4848 25.0562 28.0221 26.5392 26.5391C28.0253 25.053 28.4848 23.2562 28.583 21.2282C28.6844 19.4822 28.6654 17.7489 28.6654 15.9997ZM15.9968 22.4989C12.4002 22.4989 9.49765 19.5963 9.49765 15.9997C9.49765 12.4031 12.4002 9.50045 15.9968 9.50045C19.5933 9.50045 22.4959 12.4031 22.4959 15.9997C22.4959 19.5963 19.5933 22.4989 15.9968 22.4989ZM22.762 10.7521C21.9223 10.7521 21.2442 10.074 21.2442 9.23427C21.2442 8.39454 21.9223 7.71641 22.762 7.71641C23.6018 7.71641 24.2799 8.39454 24.2799 9.23427C24.2801 9.43367 24.241 9.63116 24.1648 9.81543C24.0886 9.99969 23.9769 10.1671 23.8359 10.3081C23.6949 10.4491 23.5274 10.5609 23.3432 10.6371C23.1589 10.7133 22.9614 10.7524 22.762 10.7521Z" fill="#0E5521"/>
</svg>
