<svg width="32" height="32" viewBox="0 0 32 32" fill="none" xmlns="http://www.w3.org/2000/svg">
<path d="M31.5242 6.58257C30.4108 7.0759 29.2148 7.40923 27.9575 7.5599C29.2548 6.78362 30.2254 5.56185 30.6882 4.12257C29.4693 4.84655 28.1353 5.35616 26.7442 5.62923C25.8087 4.63039 24.5696 3.96833 23.2193 3.74586C21.869 3.52339 20.483 3.75295 19.2765 4.3989C18.07 5.04485 17.1105 6.07105 16.5471 7.31817C15.9836 8.56529 15.8476 9.96357 16.1602 11.2959C13.6904 11.1719 11.2743 10.53 9.06874 9.41177C6.86314 8.29358 4.9173 6.72411 3.35751 4.80523C2.82418 5.72523 2.51751 6.7919 2.51751 7.9279C2.51692 8.95056 2.76876 9.95756 3.25068 10.8595C3.73261 11.7615 4.42973 12.5306 5.28018 13.0986C4.29388 13.0672 3.32934 12.8007 2.46685 12.3212V12.4012C2.46675 13.8356 2.96289 15.2257 3.87109 16.3359C4.77929 17.4461 6.04361 18.2078 7.44951 18.4919C6.53456 18.7395 5.5753 18.776 4.64418 18.5986C5.04084 19.8327 5.81351 20.9119 6.854 21.6851C7.8945 22.4583 9.15073 22.8868 10.4468 22.9106C8.24662 24.6378 5.52936 25.5747 2.73218 25.5706C2.23669 25.5707 1.74161 25.5418 1.24951 25.4839C4.08881 27.3095 7.39397 28.2783 10.7695 28.2746C22.1962 28.2746 28.4428 18.8106 28.4428 10.6026C28.4428 10.3359 28.4362 10.0666 28.4242 9.7999C29.6392 8.9212 30.6881 7.83309 31.5215 6.58657L31.5242 6.58257Z" fill="#0E5521"/>
</svg>
