<svg width="23" height="23" viewBox="0 0 23 23" fill="none" xmlns="http://www.w3.org/2000/svg">
<path d="M16.6667 17V15.6667C16.6667 14.9594 16.3857 14.2811 15.8856 13.781C15.3855 13.281 14.7072 13 14 13H8.66667C7.95942 13 7.28115 13.281 6.78105 13.781C6.28095 14.2811 6 14.9594 6 15.6667V17" stroke="#0E5521" stroke-width="2" stroke-linecap="round" stroke-linejoin="round"/>
<path d="M11.6667 10.3333C13.1394 10.3333 14.3333 9.13943 14.3333 7.66667C14.3333 6.19391 13.1394 5 11.6667 5C10.1939 5 9 6.19391 9 7.66667C9 9.13943 10.1939 10.3333 11.6667 10.3333Z" stroke="#0E5521" stroke-width="2" stroke-linecap="round" stroke-linejoin="round"/>
<path d="M11.5 22C17.299 22 22 17.299 22 11.5C22 5.70101 17.299 1 11.5 1C5.70101 1 1 5.70101 1 11.5C1 17.299 5.70101 22 11.5 22Z" stroke="#0E5521" stroke-width="2" stroke-linecap="round" stroke-linejoin="round"/>
</svg>
