<svg width="32" height="32" viewBox="0 0 32 32" fill="none" xmlns="http://www.w3.org/2000/svg">
<path d="M16.0857 6.66699H16.234C17.6041 6.67199 24.5462 6.722 26.418 7.22536C26.9838 7.37898 27.4995 7.67843 27.9134 8.09376C28.3272 8.5091 28.6248 9.02578 28.7765 9.59218C28.9448 10.2255 29.0632 11.0639 29.1432 11.929L29.1598 12.1023L29.1965 12.5357L29.2098 12.709C29.3182 14.2325 29.3315 15.6592 29.3332 15.9709V16.0959C29.3315 16.4193 29.3165 17.9427 29.1965 19.5295L29.1832 19.7045L29.1682 19.8778C29.0848 20.8312 28.9615 21.7779 28.7765 22.4746C28.6253 23.0413 28.3278 23.5582 27.9139 23.9736C27.5 24.389 26.9841 24.6883 26.418 24.8415C24.4845 25.3615 17.1357 25.3982 16.1173 25.3998H15.8807C15.3656 25.3998 13.2355 25.3898 11.002 25.3132L10.7187 25.3032L10.5737 25.2965L10.2886 25.2848L10.0036 25.2732C8.15351 25.1915 6.39174 25.0598 5.58002 24.8398C5.01413 24.6868 4.49839 24.3877 4.08447 23.9726C3.67054 23.5575 3.37296 23.041 3.22154 22.4746C3.03653 21.7796 2.91319 20.8312 2.82985 19.8778L2.81651 19.7028L2.80318 19.5295C2.72092 18.4001 2.67534 17.2683 2.6665 16.1359L2.6665 15.9309C2.66984 15.5725 2.68317 14.3341 2.77318 12.9674L2.78484 12.7957L2.78984 12.709L2.80318 12.5357L2.83985 12.1023L2.85652 11.929C2.93652 11.0639 3.05486 10.2239 3.22321 9.59218C3.37437 9.02555 3.67184 8.50863 4.08578 8.09322C4.49973 7.67781 5.0156 7.37852 5.58169 7.22536C6.3934 7.00868 8.15518 6.87534 10.0053 6.792L10.2886 6.78033L10.5753 6.77033L10.7187 6.76533L11.0037 6.75366C12.59 6.70262 14.1769 6.67428 15.764 6.66866H16.0857V6.66699ZM13.3338 12.0173V20.0478L20.2626 16.0342L13.3338 12.0173Z" fill="#0E5521"/>
</svg>
